<svg xmlns="http://www.w3.org/2000/svg" viewBox="0 0 480 280" role="img" aria-label="A happy team ready to build">
  <defs>
    <radialGradient id="glow" cx="50%" cy="42%" r="58%">
      <stop offset="0%" stop-color="#7b2ff7" stop-opacity="0.38"/>
      <stop offset="55%" stop-color="#1fb6ff" stop-opacity="0.10"/>
      <stop offset="100%" stop-color="#1fb6ff" stop-opacity="0"/>
    </radialGradient>
  </defs>

  <circle cx="240" cy="128" r="150" fill="url(#glow)"/>

  <!-- sparkles -->
  <g fill="#ffe9a8">
    <path d="M62 58l5 13 13 5-13 5-5 13-5-13-13-5 13-5z"/>
    <path d="M422 84l4 10 10 4-10 4-4 10-4-10-10-4 10-4z"/>
    <circle cx="104" cy="206" r="3"/>
    <circle cx="392" cy="196" r="3"/>
    <circle cx="240" cy="34" r="3.5"/>
  </g>

  <!-- Left teammate -->
  <g>
    <path d="M72 280c0-44 30-74 66-74s66 30 66 74z" fill="#1fb6ff"/>
    <circle cx="138" cy="150" r="40" fill="#f1c27d"/>
    <path d="M99 146a39 39 0 0 1 78 0c-10-15-26-24-39-24s-29 9-39 24z" fill="#4b2e16"/>
    <circle cx="126" cy="152" r="4" fill="#3a2410"/>
    <circle cx="150" cy="152" r="4" fill="#3a2410"/>
    <path d="M124 166c8 9 20 9 28 0" fill="none" stroke="#3a2410" stroke-width="4" stroke-linecap="round"/>
  </g>

  <!-- Right teammate -->
  <g>
    <path d="M276 280c0-44 30-74 66-74s66 30 66 74z" fill="#ff2f9e"/>
    <circle cx="342" cy="150" r="40" fill="#c68642"/>
    <path d="M303 152a39 39 0 0 1 78-6c-3-18-19-32-39-32s-37 16-39 38z" fill="#1e1209"/>
    <circle cx="330" cy="152" r="4" fill="#160d06"/>
    <circle cx="354" cy="152" r="4" fill="#160d06"/>
    <path d="M328 166c8 9 20 9 28 0" fill="none" stroke="#160d06" stroke-width="4" stroke-linecap="round"/>
  </g>

  <!-- Center teammate (front, with a raised, celebrating arm) -->
  <g>
    <path d="M250 214c18-6 34-22 40-44" fill="none" stroke="#ffdbac" stroke-width="17" stroke-linecap="round"/>
    <path d="M166 280c0-50 33-84 74-84s74 34 74 84z" fill="#7b2ff7"/>
    <circle cx="240" cy="130" r="46" fill="#ffdbac"/>
    <path d="M195 126a45 45 0 0 1 90 0c-12-17-30-27-45-27s-33 10-45 27z" fill="#6b3b12"/>
    <circle cx="226" cy="132" r="4.5" fill="#3a2410"/>
    <circle cx="254" cy="132" r="4.5" fill="#3a2410"/>
    <path d="M223 148c10 12 24 12 34 0" fill="none" stroke="#3a2410" stroke-width="4.5" stroke-linecap="round"/>
  </g>
</svg>
